<mxfile host="app.diagrams.net" agent="Mozilla/5.0 (Windows NT 10.0; Win64; x64) AppleWebKit/537.36 (KHTML, like Gecko) Chrome/140.0.0.0 Safari/537.36" version="28.2.0">
  <diagram name="Page-1" id="WQpwMC6IcB3DnlNGN1Kp">
    <mxGraphModel dx="2940" dy="1800" grid="1" gridSize="10" guides="1" tooltips="1" connect="1" arrows="1" fold="1" page="1" pageScale="1" pageWidth="850" pageHeight="1100" math="0" shadow="0">
      <root>
        <mxCell id="0" />
        <mxCell id="1" parent="0" />
        <mxCell id="8jsh10nyiT50j1TBL-Dt-3" value="Незаригестрированный пользователь" style="shape=umlActor;verticalLabelPosition=bottom;verticalAlign=top;html=1;outlineConnect=0;" vertex="1" parent="1">
          <mxGeometry x="515" y="1080" width="30" height="60" as="geometry" />
        </mxCell>
        <mxCell id="8jsh10nyiT50j1TBL-Dt-4" value="Регистрация" style="ellipse;whiteSpace=wrap;html=1;" vertex="1" parent="1">
          <mxGeometry x="460" y="950" width="140" height="70" as="geometry" />
        </mxCell>
        <mxCell id="8jsh10nyiT50j1TBL-Dt-5" value="Создание заметок" style="ellipse;whiteSpace=wrap;html=1;" vertex="1" parent="1">
          <mxGeometry x="840" y="950" width="140" height="70" as="geometry" />
        </mxCell>
        <mxCell id="8jsh10nyiT50j1TBL-Dt-6" value="Пользователь" style="shape=umlActor;verticalLabelPosition=bottom;verticalAlign=top;html=1;" vertex="1" parent="1">
          <mxGeometry x="895" y="1080" width="30" height="60" as="geometry" />
        </mxCell>
        <mxCell id="8jsh10nyiT50j1TBL-Dt-7" value="Обращение в тех. поддержку" style="ellipse;whiteSpace=wrap;html=1;" vertex="1" parent="1">
          <mxGeometry x="650" y="910" width="140" height="70" as="geometry" />
        </mxCell>
        <mxCell id="8jsh10nyiT50j1TBL-Dt-8" value="" style="endArrow=open;startArrow=none;endFill=0;startFill=0;endSize=8;html=1;verticalAlign=bottom;labelBackgroundColor=none;strokeWidth=1;rounded=0;exitX=0.5;exitY=0;exitDx=0;exitDy=0;exitPerimeter=0;entryX=0.5;entryY=1;entryDx=0;entryDy=0;" edge="1" parent="1" source="8jsh10nyiT50j1TBL-Dt-3" target="8jsh10nyiT50j1TBL-Dt-4">
          <mxGeometry width="160" relative="1" as="geometry">
            <mxPoint x="675" y="1180" as="sourcePoint" />
            <mxPoint x="835" y="1180" as="targetPoint" />
          </mxGeometry>
        </mxCell>
        <mxCell id="8jsh10nyiT50j1TBL-Dt-9" value="" style="endArrow=open;startArrow=none;endFill=0;startFill=0;endSize=8;html=1;verticalAlign=bottom;labelBackgroundColor=none;strokeWidth=1;rounded=0;exitX=0.5;exitY=0;exitDx=0;exitDy=0;exitPerimeter=0;" edge="1" parent="1" source="8jsh10nyiT50j1TBL-Dt-6" target="8jsh10nyiT50j1TBL-Dt-5">
          <mxGeometry width="160" relative="1" as="geometry">
            <mxPoint x="909.55" y="1070" as="sourcePoint" />
            <mxPoint x="909.55" y="1010" as="targetPoint" />
          </mxGeometry>
        </mxCell>
        <mxCell id="8jsh10nyiT50j1TBL-Dt-10" value="" style="endArrow=open;startArrow=none;endFill=0;startFill=0;endSize=8;html=1;verticalAlign=bottom;labelBackgroundColor=none;strokeWidth=1;rounded=0;entryX=0;entryY=1;entryDx=0;entryDy=0;" edge="1" parent="1" source="8jsh10nyiT50j1TBL-Dt-3" target="8jsh10nyiT50j1TBL-Dt-7">
          <mxGeometry width="160" relative="1" as="geometry">
            <mxPoint x="710" y="1070" as="sourcePoint" />
            <mxPoint x="710" y="1010" as="targetPoint" />
          </mxGeometry>
        </mxCell>
        <mxCell id="8jsh10nyiT50j1TBL-Dt-11" value="" style="endArrow=open;startArrow=none;endFill=0;startFill=0;endSize=8;html=1;verticalAlign=bottom;labelBackgroundColor=none;strokeWidth=1;rounded=0;entryX=1;entryY=1;entryDx=0;entryDy=0;" edge="1" parent="1" source="8jsh10nyiT50j1TBL-Dt-6" target="8jsh10nyiT50j1TBL-Dt-7">
          <mxGeometry width="160" relative="1" as="geometry">
            <mxPoint x="900" y="1090" as="sourcePoint" />
            <mxPoint x="800" y="1050" as="targetPoint" />
          </mxGeometry>
        </mxCell>
        <mxCell id="8jsh10nyiT50j1TBL-Dt-12" value="Менеджер проекта" style="shape=umlActor;verticalLabelPosition=bottom;verticalAlign=top;html=1;" vertex="1" parent="1">
          <mxGeometry x="590" y="1195" width="30" height="60" as="geometry" />
        </mxCell>
        <mxCell id="8jsh10nyiT50j1TBL-Dt-13" value="" style="endArrow=block;endSize=16;endFill=0;html=1;rounded=0;" edge="1" parent="1" source="8jsh10nyiT50j1TBL-Dt-12" target="8jsh10nyiT50j1TBL-Dt-6">
          <mxGeometry width="160" relative="1" as="geometry">
            <mxPoint x="870" y="1250" as="sourcePoint" />
            <mxPoint x="1030" y="1250" as="targetPoint" />
          </mxGeometry>
        </mxCell>
        <mxCell id="8jsh10nyiT50j1TBL-Dt-14" value="Создание проекта" style="ellipse;whiteSpace=wrap;html=1;" vertex="1" parent="1">
          <mxGeometry x="680" y="1375" width="140" height="70" as="geometry" />
        </mxCell>
        <mxCell id="8jsh10nyiT50j1TBL-Dt-15" value="" style="endArrow=open;startArrow=none;endFill=0;startFill=0;endSize=8;html=1;verticalAlign=bottom;labelBackgroundColor=none;strokeWidth=1;rounded=0;entryX=0;entryY=0;entryDx=0;entryDy=0;" edge="1" parent="1" source="8jsh10nyiT50j1TBL-Dt-12" target="8jsh10nyiT50j1TBL-Dt-14">
          <mxGeometry width="160" relative="1" as="geometry">
            <mxPoint x="570" y="1185" as="sourcePoint" />
            <mxPoint x="696" y="1060" as="targetPoint" />
          </mxGeometry>
        </mxCell>
        <mxCell id="8jsh10nyiT50j1TBL-Dt-16" value="Редактирование проекта" style="ellipse;whiteSpace=wrap;html=1;" vertex="1" parent="1">
          <mxGeometry x="500" y="1390" width="140" height="70" as="geometry" />
        </mxCell>
        <mxCell id="8jsh10nyiT50j1TBL-Dt-17" value="" style="endArrow=open;startArrow=none;endFill=0;startFill=0;endSize=8;html=1;verticalAlign=bottom;labelBackgroundColor=none;strokeWidth=1;rounded=0;entryX=0.5;entryY=0;entryDx=0;entryDy=0;" edge="1" parent="1" source="8jsh10nyiT50j1TBL-Dt-12" target="8jsh10nyiT50j1TBL-Dt-16">
          <mxGeometry width="160" relative="1" as="geometry">
            <mxPoint x="880" y="1230" as="sourcePoint" />
            <mxPoint x="886" y="1102" as="targetPoint" />
          </mxGeometry>
        </mxCell>
        <mxCell id="8jsh10nyiT50j1TBL-Dt-18" value="Участник проекта" style="shape=umlActor;verticalLabelPosition=bottom;verticalAlign=top;html=1;" vertex="1" parent="1">
          <mxGeometry x="1200" y="1190" width="30" height="60" as="geometry" />
        </mxCell>
        <mxCell id="8jsh10nyiT50j1TBL-Dt-19" value="" style="endArrow=block;endSize=16;endFill=0;html=1;rounded=0;" edge="1" parent="1" source="8jsh10nyiT50j1TBL-Dt-18" target="8jsh10nyiT50j1TBL-Dt-6">
          <mxGeometry width="160" relative="1" as="geometry">
            <mxPoint x="1420" y="1245" as="sourcePoint" />
            <mxPoint x="1445" y="1110" as="targetPoint" />
          </mxGeometry>
        </mxCell>
        <mxCell id="8jsh10nyiT50j1TBL-Dt-20" value="Присоединение к доске" style="ellipse;whiteSpace=wrap;html=1;" vertex="1" parent="1">
          <mxGeometry x="1145" y="990" width="140" height="70" as="geometry" />
        </mxCell>
        <mxCell id="8jsh10nyiT50j1TBL-Dt-21" value="" style="endArrow=open;startArrow=none;endFill=0;startFill=0;endSize=8;html=1;verticalAlign=bottom;labelBackgroundColor=none;strokeWidth=1;rounded=0;" edge="1" parent="1" source="8jsh10nyiT50j1TBL-Dt-18" target="8jsh10nyiT50j1TBL-Dt-20">
          <mxGeometry width="160" relative="1" as="geometry">
            <mxPoint x="1380" y="1205" as="sourcePoint" />
            <mxPoint x="1556" y="1055" as="targetPoint" />
          </mxGeometry>
        </mxCell>
        <mxCell id="8jsh10nyiT50j1TBL-Dt-22" value="Добавление досок" style="ellipse;whiteSpace=wrap;html=1;" vertex="1" parent="1">
          <mxGeometry x="840" y="1270" width="140" height="70" as="geometry" />
        </mxCell>
        <mxCell id="8jsh10nyiT50j1TBL-Dt-23" value="" style="endArrow=open;startArrow=none;endFill=0;startFill=0;endSize=8;html=1;verticalAlign=bottom;labelBackgroundColor=none;strokeWidth=1;rounded=0;entryX=1;entryY=0;entryDx=0;entryDy=0;" edge="1" parent="1" source="8jsh10nyiT50j1TBL-Dt-18" target="8jsh10nyiT50j1TBL-Dt-22">
          <mxGeometry width="160" relative="1" as="geometry">
            <mxPoint x="1430" y="1225" as="sourcePoint" />
            <mxPoint x="1436" y="1097" as="targetPoint" />
          </mxGeometry>
        </mxCell>
        <mxCell id="8jsh10nyiT50j1TBL-Dt-24" value="Выдача прав участникам" style="ellipse;whiteSpace=wrap;html=1;" vertex="1" parent="1">
          <mxGeometry x="320" y="1200" width="140" height="70" as="geometry" />
        </mxCell>
        <mxCell id="8jsh10nyiT50j1TBL-Dt-25" value="Убирание прав участников" style="ellipse;whiteSpace=wrap;html=1;" vertex="1" parent="1">
          <mxGeometry x="350" y="1320" width="140" height="70" as="geometry" />
        </mxCell>
        <mxCell id="8jsh10nyiT50j1TBL-Dt-26" value="" style="endArrow=open;startArrow=none;endFill=0;startFill=0;endSize=8;html=1;verticalAlign=bottom;labelBackgroundColor=none;strokeWidth=1;rounded=0;" edge="1" parent="1" source="8jsh10nyiT50j1TBL-Dt-12" target="8jsh10nyiT50j1TBL-Dt-24">
          <mxGeometry width="160" relative="1" as="geometry">
            <mxPoint x="745" y="1260" as="sourcePoint" />
            <mxPoint x="650" y="1398" as="targetPoint" />
          </mxGeometry>
        </mxCell>
        <mxCell id="8jsh10nyiT50j1TBL-Dt-27" value="" style="endArrow=open;startArrow=none;endFill=0;startFill=0;endSize=8;html=1;verticalAlign=bottom;labelBackgroundColor=none;strokeWidth=1;rounded=0;entryX=1;entryY=0;entryDx=0;entryDy=0;" edge="1" parent="1" source="8jsh10nyiT50j1TBL-Dt-12" target="8jsh10nyiT50j1TBL-Dt-25">
          <mxGeometry width="160" relative="1" as="geometry">
            <mxPoint x="935" y="1360" as="sourcePoint" />
            <mxPoint x="840" y="1498" as="targetPoint" />
          </mxGeometry>
        </mxCell>
        <mxCell id="8jsh10nyiT50j1TBL-Dt-28" value="" style="endArrow=open;startArrow=none;endFill=0;startFill=0;endSize=8;html=1;verticalAlign=bottom;labelBackgroundColor=none;strokeWidth=1;rounded=0;entryX=0;entryY=0;entryDx=0;entryDy=0;" edge="1" parent="1" source="8jsh10nyiT50j1TBL-Dt-12" target="8jsh10nyiT50j1TBL-Dt-22">
          <mxGeometry width="160" relative="1" as="geometry">
            <mxPoint x="1288" y="1330" as="sourcePoint" />
            <mxPoint x="1200" y="1555" as="targetPoint" />
          </mxGeometry>
        </mxCell>
        <mxCell id="8jsh10nyiT50j1TBL-Dt-29" value="Тех. поддержка" style="shape=umlActor;verticalLabelPosition=bottom;verticalAlign=top;html=1;" vertex="1" parent="1">
          <mxGeometry x="1045" y="1335" width="30" height="60" as="geometry" />
        </mxCell>
        <mxCell id="8jsh10nyiT50j1TBL-Dt-30" value="Ответ на запрос пользователя" style="ellipse;whiteSpace=wrap;html=1;" vertex="1" parent="1">
          <mxGeometry x="990" y="1485" width="140" height="70" as="geometry" />
        </mxCell>
        <mxCell id="8jsh10nyiT50j1TBL-Dt-31" value="Просмотр логов" style="ellipse;whiteSpace=wrap;html=1;" vertex="1" parent="1">
          <mxGeometry x="1209" y="1330" width="140" height="70" as="geometry" />
        </mxCell>
        <mxCell id="8jsh10nyiT50j1TBL-Dt-32" value="Резервное копирование&amp;nbsp;" style="ellipse;whiteSpace=wrap;html=1;" vertex="1" parent="1">
          <mxGeometry x="1159" y="1445" width="150" height="70" as="geometry" />
        </mxCell>
        <mxCell id="8jsh10nyiT50j1TBL-Dt-33" value="" style="endArrow=open;startArrow=none;endFill=0;startFill=0;endSize=8;html=1;verticalAlign=bottom;labelBackgroundColor=none;strokeWidth=1;rounded=0;entryX=0.5;entryY=0;entryDx=0;entryDy=0;" edge="1" parent="1" source="8jsh10nyiT50j1TBL-Dt-29" target="8jsh10nyiT50j1TBL-Dt-30">
          <mxGeometry width="160" relative="1" as="geometry">
            <mxPoint x="814" y="1565" as="sourcePoint" />
            <mxPoint x="904" y="1716" as="targetPoint" />
          </mxGeometry>
        </mxCell>
        <mxCell id="8jsh10nyiT50j1TBL-Dt-34" value="" style="endArrow=open;startArrow=none;endFill=0;startFill=0;endSize=8;html=1;verticalAlign=bottom;labelBackgroundColor=none;strokeWidth=1;rounded=0;entryX=0;entryY=0;entryDx=0;entryDy=0;" edge="1" parent="1" source="8jsh10nyiT50j1TBL-Dt-29" target="8jsh10nyiT50j1TBL-Dt-32">
          <mxGeometry width="160" relative="1" as="geometry">
            <mxPoint x="1129" y="1455" as="sourcePoint" />
            <mxPoint x="1219" y="1606" as="targetPoint" />
          </mxGeometry>
        </mxCell>
        <mxCell id="8jsh10nyiT50j1TBL-Dt-35" value="" style="endArrow=open;startArrow=none;endFill=0;startFill=0;endSize=8;html=1;verticalAlign=bottom;labelBackgroundColor=none;strokeWidth=1;rounded=0;" edge="1" parent="1" source="8jsh10nyiT50j1TBL-Dt-29" target="8jsh10nyiT50j1TBL-Dt-31">
          <mxGeometry width="160" relative="1" as="geometry">
            <mxPoint x="1309" y="1265" as="sourcePoint" />
            <mxPoint x="1399" y="1416" as="targetPoint" />
          </mxGeometry>
        </mxCell>
        <mxCell id="8jsh10nyiT50j1TBL-Dt-36" value="&amp;lt;&amp;lt;include&amp;gt;&amp;gt;" style="html=1;verticalAlign=bottom;labelBackgroundColor=none;endArrow=open;endFill=0;dashed=1;rounded=0;exitX=0;exitY=1;exitDx=0;exitDy=0;entryX=1;entryY=0;entryDx=0;entryDy=0;" edge="1" parent="1" source="8jsh10nyiT50j1TBL-Dt-22" target="8jsh10nyiT50j1TBL-Dt-14">
          <mxGeometry width="160" relative="1" as="geometry">
            <mxPoint x="840" y="1370" as="sourcePoint" />
            <mxPoint x="1000" y="1370" as="targetPoint" />
          </mxGeometry>
        </mxCell>
        <mxCell id="8jsh10nyiT50j1TBL-Dt-37" value="Незаригестрированный пользователь" style="shape=umlActor;verticalLabelPosition=bottom;verticalAlign=top;html=1;outlineConnect=0;" vertex="1" parent="1">
          <mxGeometry x="515" y="2370" width="30" height="60" as="geometry" />
        </mxCell>
        <mxCell id="8jsh10nyiT50j1TBL-Dt-38" value="Регистрация" style="ellipse;whiteSpace=wrap;html=1;" vertex="1" parent="1">
          <mxGeometry x="460" y="2240" width="140" height="70" as="geometry" />
        </mxCell>
        <mxCell id="8jsh10nyiT50j1TBL-Dt-39" value="Создание заметок" style="ellipse;whiteSpace=wrap;html=1;" vertex="1" parent="1">
          <mxGeometry x="840" y="2240" width="140" height="70" as="geometry" />
        </mxCell>
        <mxCell id="8jsh10nyiT50j1TBL-Dt-40" value="Пользователь" style="shape=umlActor;verticalLabelPosition=bottom;verticalAlign=top;html=1;" vertex="1" parent="1">
          <mxGeometry x="895" y="2370" width="30" height="60" as="geometry" />
        </mxCell>
        <mxCell id="8jsh10nyiT50j1TBL-Dt-41" value="Обращение в тех. поддержку" style="ellipse;whiteSpace=wrap;html=1;" vertex="1" parent="1">
          <mxGeometry x="650" y="2200" width="140" height="70" as="geometry" />
        </mxCell>
        <mxCell id="8jsh10nyiT50j1TBL-Dt-42" value="" style="endArrow=open;startArrow=none;endFill=0;startFill=0;endSize=8;html=1;verticalAlign=bottom;labelBackgroundColor=none;strokeWidth=1;rounded=0;exitX=0.5;exitY=0;exitDx=0;exitDy=0;exitPerimeter=0;entryX=0.5;entryY=1;entryDx=0;entryDy=0;" edge="1" parent="1" source="8jsh10nyiT50j1TBL-Dt-37" target="8jsh10nyiT50j1TBL-Dt-38">
          <mxGeometry width="160" relative="1" as="geometry">
            <mxPoint x="675" y="2470" as="sourcePoint" />
            <mxPoint x="835" y="2470" as="targetPoint" />
          </mxGeometry>
        </mxCell>
        <mxCell id="8jsh10nyiT50j1TBL-Dt-43" value="" style="endArrow=open;startArrow=none;endFill=0;startFill=0;endSize=8;html=1;verticalAlign=bottom;labelBackgroundColor=none;strokeWidth=1;rounded=0;exitX=0.5;exitY=0;exitDx=0;exitDy=0;exitPerimeter=0;" edge="1" parent="1" source="8jsh10nyiT50j1TBL-Dt-40" target="8jsh10nyiT50j1TBL-Dt-39">
          <mxGeometry width="160" relative="1" as="geometry">
            <mxPoint x="909.55" y="2360" as="sourcePoint" />
            <mxPoint x="909.55" y="2300" as="targetPoint" />
          </mxGeometry>
        </mxCell>
        <mxCell id="8jsh10nyiT50j1TBL-Dt-44" value="" style="endArrow=open;startArrow=none;endFill=0;startFill=0;endSize=8;html=1;verticalAlign=bottom;labelBackgroundColor=none;strokeWidth=1;rounded=0;entryX=0;entryY=1;entryDx=0;entryDy=0;" edge="1" parent="1" source="8jsh10nyiT50j1TBL-Dt-37" target="8jsh10nyiT50j1TBL-Dt-41">
          <mxGeometry width="160" relative="1" as="geometry">
            <mxPoint x="710" y="2360" as="sourcePoint" />
            <mxPoint x="710" y="2300" as="targetPoint" />
          </mxGeometry>
        </mxCell>
        <mxCell id="8jsh10nyiT50j1TBL-Dt-45" value="" style="endArrow=open;startArrow=none;endFill=0;startFill=0;endSize=8;html=1;verticalAlign=bottom;labelBackgroundColor=none;strokeWidth=1;rounded=0;entryX=1;entryY=1;entryDx=0;entryDy=0;" edge="1" parent="1" source="8jsh10nyiT50j1TBL-Dt-40" target="8jsh10nyiT50j1TBL-Dt-41">
          <mxGeometry width="160" relative="1" as="geometry">
            <mxPoint x="900" y="2380" as="sourcePoint" />
            <mxPoint x="800" y="2340" as="targetPoint" />
          </mxGeometry>
        </mxCell>
        <mxCell id="8jsh10nyiT50j1TBL-Dt-46" value="Менеджер проекта" style="shape=umlActor;verticalLabelPosition=bottom;verticalAlign=top;html=1;" vertex="1" parent="1">
          <mxGeometry x="590" y="2485" width="30" height="60" as="geometry" />
        </mxCell>
        <mxCell id="8jsh10nyiT50j1TBL-Dt-47" value="" style="endArrow=block;endSize=16;endFill=0;html=1;rounded=0;" edge="1" parent="1" source="8jsh10nyiT50j1TBL-Dt-46" target="8jsh10nyiT50j1TBL-Dt-40">
          <mxGeometry width="160" relative="1" as="geometry">
            <mxPoint x="870" y="2540" as="sourcePoint" />
            <mxPoint x="1030" y="2540" as="targetPoint" />
          </mxGeometry>
        </mxCell>
        <mxCell id="8jsh10nyiT50j1TBL-Dt-48" value="Создание проекта" style="ellipse;whiteSpace=wrap;html=1;" vertex="1" parent="1">
          <mxGeometry x="680" y="2665" width="140" height="70" as="geometry" />
        </mxCell>
        <mxCell id="8jsh10nyiT50j1TBL-Dt-49" value="" style="endArrow=open;startArrow=none;endFill=0;startFill=0;endSize=8;html=1;verticalAlign=bottom;labelBackgroundColor=none;strokeWidth=1;rounded=0;entryX=0;entryY=0;entryDx=0;entryDy=0;" edge="1" parent="1" source="8jsh10nyiT50j1TBL-Dt-46" target="8jsh10nyiT50j1TBL-Dt-48">
          <mxGeometry width="160" relative="1" as="geometry">
            <mxPoint x="570" y="2475" as="sourcePoint" />
            <mxPoint x="696" y="2350" as="targetPoint" />
          </mxGeometry>
        </mxCell>
        <mxCell id="8jsh10nyiT50j1TBL-Dt-50" value="Редактирование проекта" style="ellipse;whiteSpace=wrap;html=1;" vertex="1" parent="1">
          <mxGeometry x="500" y="2680" width="140" height="70" as="geometry" />
        </mxCell>
        <mxCell id="8jsh10nyiT50j1TBL-Dt-51" value="" style="endArrow=open;startArrow=none;endFill=0;startFill=0;endSize=8;html=1;verticalAlign=bottom;labelBackgroundColor=none;strokeWidth=1;rounded=0;entryX=0.5;entryY=0;entryDx=0;entryDy=0;" edge="1" parent="1" source="8jsh10nyiT50j1TBL-Dt-46" target="8jsh10nyiT50j1TBL-Dt-50">
          <mxGeometry width="160" relative="1" as="geometry">
            <mxPoint x="880" y="2520" as="sourcePoint" />
            <mxPoint x="886" y="2392" as="targetPoint" />
          </mxGeometry>
        </mxCell>
        <mxCell id="8jsh10nyiT50j1TBL-Dt-52" value="Участник проекта" style="shape=umlActor;verticalLabelPosition=bottom;verticalAlign=top;html=1;" vertex="1" parent="1">
          <mxGeometry x="1209" y="2450" width="30" height="60" as="geometry" />
        </mxCell>
        <mxCell id="8jsh10nyiT50j1TBL-Dt-53" value="" style="endArrow=block;endSize=16;endFill=0;html=1;rounded=0;" edge="1" parent="1" source="8jsh10nyiT50j1TBL-Dt-52" target="8jsh10nyiT50j1TBL-Dt-40">
          <mxGeometry width="160" relative="1" as="geometry">
            <mxPoint x="1420" y="2535" as="sourcePoint" />
            <mxPoint x="1445" y="2400" as="targetPoint" />
          </mxGeometry>
        </mxCell>
        <mxCell id="8jsh10nyiT50j1TBL-Dt-54" value="Присоединение к доске" style="ellipse;whiteSpace=wrap;html=1;" vertex="1" parent="1">
          <mxGeometry x="1275" y="2340" width="140" height="70" as="geometry" />
        </mxCell>
        <mxCell id="8jsh10nyiT50j1TBL-Dt-55" value="" style="endArrow=open;startArrow=none;endFill=0;startFill=0;endSize=8;html=1;verticalAlign=bottom;labelBackgroundColor=none;strokeWidth=1;rounded=0;" edge="1" parent="1" source="8jsh10nyiT50j1TBL-Dt-52" target="8jsh10nyiT50j1TBL-Dt-54">
          <mxGeometry width="160" relative="1" as="geometry">
            <mxPoint x="1380" y="2495" as="sourcePoint" />
            <mxPoint x="1556" y="2345" as="targetPoint" />
          </mxGeometry>
        </mxCell>
        <mxCell id="8jsh10nyiT50j1TBL-Dt-56" value="Редактирование досок" style="ellipse;whiteSpace=wrap;html=1;" vertex="1" parent="1">
          <mxGeometry x="840" y="2560" width="140" height="70" as="geometry" />
        </mxCell>
        <mxCell id="8jsh10nyiT50j1TBL-Dt-57" value="" style="endArrow=open;startArrow=none;endFill=0;startFill=0;endSize=8;html=1;verticalAlign=bottom;labelBackgroundColor=none;strokeWidth=1;rounded=0;entryX=1;entryY=0;entryDx=0;entryDy=0;" edge="1" parent="1" source="8jsh10nyiT50j1TBL-Dt-52" target="8jsh10nyiT50j1TBL-Dt-56">
          <mxGeometry width="160" relative="1" as="geometry">
            <mxPoint x="1430" y="2515" as="sourcePoint" />
            <mxPoint x="1436" y="2387" as="targetPoint" />
          </mxGeometry>
        </mxCell>
        <mxCell id="8jsh10nyiT50j1TBL-Dt-58" value="Выдача прав участникам" style="ellipse;whiteSpace=wrap;html=1;" vertex="1" parent="1">
          <mxGeometry x="320" y="2490" width="140" height="70" as="geometry" />
        </mxCell>
        <mxCell id="8jsh10nyiT50j1TBL-Dt-59" value="Убирание прав участников" style="ellipse;whiteSpace=wrap;html=1;" vertex="1" parent="1">
          <mxGeometry x="350" y="2610" width="140" height="70" as="geometry" />
        </mxCell>
        <mxCell id="8jsh10nyiT50j1TBL-Dt-60" value="" style="endArrow=open;startArrow=none;endFill=0;startFill=0;endSize=8;html=1;verticalAlign=bottom;labelBackgroundColor=none;strokeWidth=1;rounded=0;" edge="1" parent="1" source="8jsh10nyiT50j1TBL-Dt-46" target="8jsh10nyiT50j1TBL-Dt-58">
          <mxGeometry width="160" relative="1" as="geometry">
            <mxPoint x="745" y="2550" as="sourcePoint" />
            <mxPoint x="650" y="2688" as="targetPoint" />
          </mxGeometry>
        </mxCell>
        <mxCell id="8jsh10nyiT50j1TBL-Dt-61" value="" style="endArrow=open;startArrow=none;endFill=0;startFill=0;endSize=8;html=1;verticalAlign=bottom;labelBackgroundColor=none;strokeWidth=1;rounded=0;entryX=1;entryY=0;entryDx=0;entryDy=0;" edge="1" parent="1" source="8jsh10nyiT50j1TBL-Dt-46" target="8jsh10nyiT50j1TBL-Dt-59">
          <mxGeometry width="160" relative="1" as="geometry">
            <mxPoint x="935" y="2650" as="sourcePoint" />
            <mxPoint x="840" y="2788" as="targetPoint" />
          </mxGeometry>
        </mxCell>
        <mxCell id="8jsh10nyiT50j1TBL-Dt-62" value="" style="endArrow=open;startArrow=none;endFill=0;startFill=0;endSize=8;html=1;verticalAlign=bottom;labelBackgroundColor=none;strokeWidth=1;rounded=0;entryX=0;entryY=0;entryDx=0;entryDy=0;" edge="1" parent="1" source="8jsh10nyiT50j1TBL-Dt-46" target="8jsh10nyiT50j1TBL-Dt-56">
          <mxGeometry width="160" relative="1" as="geometry">
            <mxPoint x="1288" y="2620" as="sourcePoint" />
            <mxPoint x="1200" y="2845" as="targetPoint" />
          </mxGeometry>
        </mxCell>
        <mxCell id="8jsh10nyiT50j1TBL-Dt-70" value="&amp;lt;&amp;lt;include&amp;gt;&amp;gt;" style="html=1;verticalAlign=bottom;labelBackgroundColor=none;endArrow=open;endFill=0;dashed=1;rounded=0;exitX=0;exitY=1;exitDx=0;exitDy=0;entryX=1;entryY=0;entryDx=0;entryDy=0;" edge="1" parent="1" source="8jsh10nyiT50j1TBL-Dt-56" target="8jsh10nyiT50j1TBL-Dt-48">
          <mxGeometry width="160" relative="1" as="geometry">
            <mxPoint x="840" y="2660" as="sourcePoint" />
            <mxPoint x="1000" y="2660" as="targetPoint" />
          </mxGeometry>
        </mxCell>
        <mxCell id="8jsh10nyiT50j1TBL-Dt-73" value="Изменение досок" style="ellipse;whiteSpace=wrap;html=1;" vertex="1" parent="1">
          <mxGeometry x="845" y="2710" width="145" height="80" as="geometry" />
        </mxCell>
        <mxCell id="8jsh10nyiT50j1TBL-Dt-74" value="&amp;lt;&amp;lt;extend&amp;gt;&amp;gt;" style="html=1;verticalAlign=bottom;labelBackgroundColor=none;endArrow=open;endFill=0;dashed=1;rounded=0;entryX=0.5;entryY=1;entryDx=0;entryDy=0;exitX=0.5;exitY=0;exitDx=0;exitDy=0;fontStyle=1" edge="1" parent="1" source="8jsh10nyiT50j1TBL-Dt-73" target="8jsh10nyiT50j1TBL-Dt-56">
          <mxGeometry width="160" relative="1" as="geometry">
            <mxPoint x="960" y="2680" as="sourcePoint" />
            <mxPoint x="935" y="2655" as="targetPoint" />
          </mxGeometry>
        </mxCell>
        <mxCell id="8jsh10nyiT50j1TBL-Dt-77" value="Удаление досок" style="ellipse;whiteSpace=wrap;html=1;" vertex="1" parent="1">
          <mxGeometry x="1014" y="2675" width="145" height="80" as="geometry" />
        </mxCell>
        <mxCell id="8jsh10nyiT50j1TBL-Dt-78" value="&amp;lt;&amp;lt;extend&amp;gt;&amp;gt;" style="html=1;verticalAlign=bottom;labelBackgroundColor=none;endArrow=open;endFill=0;dashed=1;rounded=0;entryX=1;entryY=1;entryDx=0;entryDy=0;exitX=0;exitY=0;exitDx=0;exitDy=0;fontStyle=1" edge="1" parent="1" source="8jsh10nyiT50j1TBL-Dt-77" target="8jsh10nyiT50j1TBL-Dt-56">
          <mxGeometry x="-0.0044" width="160" relative="1" as="geometry">
            <mxPoint x="1115" y="2615" as="sourcePoint" />
            <mxPoint x="1065" y="2565" as="targetPoint" />
            <mxPoint as="offset" />
          </mxGeometry>
        </mxCell>
        <mxCell id="8jsh10nyiT50j1TBL-Dt-81" value="Измениение проекта" style="ellipse;whiteSpace=wrap;html=1;" vertex="1" parent="1">
          <mxGeometry x="390" y="2800" width="145" height="80" as="geometry" />
        </mxCell>
        <mxCell id="8jsh10nyiT50j1TBL-Dt-82" value="&amp;lt;&amp;lt;extend&amp;gt;&amp;gt;" style="html=1;verticalAlign=bottom;labelBackgroundColor=none;endArrow=open;endFill=0;dashed=1;rounded=0;entryX=0;entryY=1;entryDx=0;entryDy=0;exitX=0.5;exitY=0;exitDx=0;exitDy=0;fontStyle=1" edge="1" parent="1" source="8jsh10nyiT50j1TBL-Dt-81" target="8jsh10nyiT50j1TBL-Dt-50">
          <mxGeometry width="160" relative="1" as="geometry">
            <mxPoint x="565" y="2851.25" as="sourcePoint" />
            <mxPoint x="520.5025253169417" y="2749.9987373415292" as="targetPoint" />
          </mxGeometry>
        </mxCell>
        <mxCell id="8jsh10nyiT50j1TBL-Dt-83" value="Удаление проекта" style="ellipse;whiteSpace=wrap;html=1;" vertex="1" parent="1">
          <mxGeometry x="600" y="2800" width="145" height="80" as="geometry" />
        </mxCell>
        <mxCell id="8jsh10nyiT50j1TBL-Dt-84" value="&amp;lt;&amp;lt;extend&amp;gt;&amp;gt;" style="html=1;verticalAlign=bottom;labelBackgroundColor=none;endArrow=open;endFill=0;dashed=1;rounded=0;entryX=1;entryY=1;entryDx=0;entryDy=0;exitX=0.5;exitY=0;exitDx=0;exitDy=0;fontStyle=1" edge="1" parent="1" source="8jsh10nyiT50j1TBL-Dt-83" target="8jsh10nyiT50j1TBL-Dt-50">
          <mxGeometry x="-0.0044" width="160" relative="1" as="geometry">
            <mxPoint x="720" y="2786.25" as="sourcePoint" />
            <mxPoint x="619.4974746830583" y="2749.9987373415292" as="targetPoint" />
            <mxPoint as="offset" />
          </mxGeometry>
        </mxCell>
        <mxCell id="8jsh10nyiT50j1TBL-Dt-85" value="Добавление досок" style="ellipse;whiteSpace=wrap;html=1;" vertex="1" parent="1">
          <mxGeometry x="1064" y="2555" width="145" height="80" as="geometry" />
        </mxCell>
        <mxCell id="8jsh10nyiT50j1TBL-Dt-86" value="&amp;lt;&amp;lt;extend&amp;gt;&amp;gt;" style="html=1;verticalAlign=bottom;labelBackgroundColor=none;endArrow=open;endFill=0;dashed=1;rounded=0;entryX=1;entryY=0.5;entryDx=0;entryDy=0;exitX=0;exitY=0.5;exitDx=0;exitDy=0;fontStyle=1" edge="1" parent="1" source="8jsh10nyiT50j1TBL-Dt-85" target="8jsh10nyiT50j1TBL-Dt-56">
          <mxGeometry x="-0.0044" width="160" relative="1" as="geometry">
            <mxPoint x="1186" y="2500" as="sourcePoint" />
            <mxPoint x="971" y="2560" as="targetPoint" />
            <mxPoint as="offset" />
          </mxGeometry>
        </mxCell>
        <mxCell id="8jsh10nyiT50j1TBL-Dt-87" value="Установка уведомления на заметку" style="ellipse;whiteSpace=wrap;html=1;" vertex="1" parent="1">
          <mxGeometry x="695" y="2100" width="145" height="80" as="geometry" />
        </mxCell>
        <mxCell id="8jsh10nyiT50j1TBL-Dt-88" value="&amp;lt;&amp;lt;extend&amp;gt;&amp;gt;" style="html=1;verticalAlign=bottom;labelBackgroundColor=none;endArrow=open;endFill=0;dashed=1;rounded=0;entryX=0;entryY=0;entryDx=0;entryDy=0;exitX=1;exitY=1;exitDx=0;exitDy=0;fontStyle=1" edge="1" parent="1" source="8jsh10nyiT50j1TBL-Dt-87" target="8jsh10nyiT50j1TBL-Dt-39">
          <mxGeometry width="160" relative="1" as="geometry">
            <mxPoint x="955" y="2141.25" as="sourcePoint" />
            <mxPoint x="911" y="2030" as="targetPoint" />
          </mxGeometry>
        </mxCell>
        <mxCell id="8jsh10nyiT50j1TBL-Dt-89" value="Удаление заметок" style="ellipse;whiteSpace=wrap;html=1;" vertex="1" parent="1">
          <mxGeometry x="870" y="2080" width="145" height="80" as="geometry" />
        </mxCell>
        <mxCell id="8jsh10nyiT50j1TBL-Dt-90" value="&amp;lt;&amp;lt;extend&amp;gt;&amp;gt;" style="html=1;verticalAlign=bottom;labelBackgroundColor=none;endArrow=open;endFill=0;dashed=1;rounded=0;entryX=0.5;entryY=0;entryDx=0;entryDy=0;exitX=0.5;exitY=1;exitDx=0;exitDy=0;fontStyle=1;exitPerimeter=0;" edge="1" parent="1" source="8jsh10nyiT50j1TBL-Dt-89" target="8jsh10nyiT50j1TBL-Dt-39">
          <mxGeometry width="160" relative="1" as="geometry">
            <mxPoint x="1130" y="2121.25" as="sourcePoint" />
            <mxPoint x="1036" y="2230" as="targetPoint" />
          </mxGeometry>
        </mxCell>
        <mxCell id="8jsh10nyiT50j1TBL-Dt-91" value="Изменение заметок" style="ellipse;whiteSpace=wrap;html=1;" vertex="1" parent="1">
          <mxGeometry x="1040" y="2110" width="145" height="80" as="geometry" />
        </mxCell>
        <mxCell id="8jsh10nyiT50j1TBL-Dt-92" value="&amp;lt;&amp;lt;extend&amp;gt;&amp;gt;" style="html=1;verticalAlign=bottom;labelBackgroundColor=none;endArrow=open;endFill=0;dashed=1;rounded=0;entryX=1;entryY=0;entryDx=0;entryDy=0;exitX=0;exitY=1;exitDx=0;exitDy=0;fontStyle=1" edge="1" parent="1" source="8jsh10nyiT50j1TBL-Dt-91" target="8jsh10nyiT50j1TBL-Dt-39">
          <mxGeometry width="160" relative="1" as="geometry">
            <mxPoint x="1305" y="2131.25" as="sourcePoint" />
            <mxPoint x="1211" y="2240" as="targetPoint" />
          </mxGeometry>
        </mxCell>
        <mxCell id="8jsh10nyiT50j1TBL-Dt-93" value="Фильтрация по категориям и тегам" style="ellipse;whiteSpace=wrap;html=1;" vertex="1" parent="1">
          <mxGeometry x="1030" y="2320" width="145" height="80" as="geometry" />
        </mxCell>
        <mxCell id="8jsh10nyiT50j1TBL-Dt-94" value="&amp;lt;&amp;lt;extend&amp;gt;&amp;gt;" style="html=1;verticalAlign=bottom;labelBackgroundColor=none;endArrow=open;endFill=0;dashed=1;rounded=0;exitX=0;exitY=0.5;exitDx=0;exitDy=0;fontStyle=1;entryX=1;entryY=1;entryDx=0;entryDy=0;" edge="1" parent="1" source="8jsh10nyiT50j1TBL-Dt-93" target="8jsh10nyiT50j1TBL-Dt-39">
          <mxGeometry width="160" relative="1" as="geometry">
            <mxPoint x="1354" y="2251.25" as="sourcePoint" />
            <mxPoint x="980" y="2275" as="targetPoint" />
          </mxGeometry>
        </mxCell>
        <mxCell id="8jsh10nyiT50j1TBL-Dt-95" value="Добавление тега к заметке" style="ellipse;whiteSpace=wrap;html=1;" vertex="1" parent="1">
          <mxGeometry x="1100" y="2210" width="145" height="80" as="geometry" />
        </mxCell>
        <mxCell id="8jsh10nyiT50j1TBL-Dt-96" value="&amp;lt;&amp;lt;extend&amp;gt;&amp;gt;" style="html=1;verticalAlign=bottom;labelBackgroundColor=none;endArrow=open;endFill=0;dashed=1;rounded=0;entryX=1;entryY=0.5;entryDx=0;entryDy=0;exitX=0;exitY=0.5;exitDx=0;exitDy=0;fontStyle=1" edge="1" parent="1" source="8jsh10nyiT50j1TBL-Dt-95" target="8jsh10nyiT50j1TBL-Dt-39">
          <mxGeometry width="160" relative="1" as="geometry">
            <mxPoint x="1360" y="2251.25" as="sourcePoint" />
            <mxPoint x="1266" y="2360" as="targetPoint" />
          </mxGeometry>
        </mxCell>
        <mxCell id="8jsh10nyiT50j1TBL-Dt-98" value="Поиск заметки по тегу" style="ellipse;whiteSpace=wrap;html=1;" vertex="1" parent="1">
          <mxGeometry x="1272.5" y="2150" width="145" height="80" as="geometry" />
        </mxCell>
        <mxCell id="8jsh10nyiT50j1TBL-Dt-99" value="&amp;lt;&amp;lt;extend&amp;gt;&amp;gt;" style="html=1;verticalAlign=bottom;labelBackgroundColor=none;endArrow=open;endFill=0;dashed=1;rounded=0;entryX=1;entryY=0.5;entryDx=0;entryDy=0;exitX=0;exitY=1;exitDx=0;exitDy=0;fontStyle=1;" edge="1" parent="1" source="8jsh10nyiT50j1TBL-Dt-98" target="8jsh10nyiT50j1TBL-Dt-95">
          <mxGeometry width="160" relative="1" as="geometry">
            <mxPoint x="1545" y="2171.25" as="sourcePoint" />
            <mxPoint x="1451" y="2280" as="targetPoint" />
          </mxGeometry>
        </mxCell>
        <mxCell id="8jsh10nyiT50j1TBL-Dt-100" value="Редактирование задач" style="ellipse;whiteSpace=wrap;html=1;" vertex="1" parent="1">
          <mxGeometry x="1030" y="2810" width="145" height="80" as="geometry" />
        </mxCell>
        <mxCell id="8jsh10nyiT50j1TBL-Dt-101" value="&amp;lt;&amp;lt;extend&amp;gt;&amp;gt;" style="html=1;verticalAlign=bottom;labelBackgroundColor=none;endArrow=open;endFill=0;dashed=1;rounded=0;entryX=0.698;entryY=0.966;entryDx=0;entryDy=0;exitX=0;exitY=0;exitDx=0;exitDy=0;fontStyle=1;entryPerimeter=0;" edge="1" parent="1" source="8jsh10nyiT50j1TBL-Dt-100" target="8jsh10nyiT50j1TBL-Dt-56">
          <mxGeometry x="0.2823" y="-2" width="160" relative="1" as="geometry">
            <mxPoint x="1156" y="2771.49" as="sourcePoint" />
            <mxPoint x="939.54" y="2630" as="targetPoint" />
            <mxPoint as="offset" />
          </mxGeometry>
        </mxCell>
        <mxCell id="8jsh10nyiT50j1TBL-Dt-102" value="Добпавление задач" style="ellipse;whiteSpace=wrap;html=1;" vertex="1" parent="1">
          <mxGeometry x="820" y="2850" width="145" height="80" as="geometry" />
        </mxCell>
        <mxCell id="8jsh10nyiT50j1TBL-Dt-103" value="&amp;lt;&amp;lt;extend&amp;gt;&amp;gt;" style="html=1;verticalAlign=bottom;labelBackgroundColor=none;endArrow=open;endFill=0;dashed=1;rounded=0;entryX=0;entryY=0.5;entryDx=0;entryDy=0;exitX=1;exitY=0;exitDx=0;exitDy=0;fontStyle=1" edge="1" parent="1" source="8jsh10nyiT50j1TBL-Dt-102" target="8jsh10nyiT50j1TBL-Dt-100">
          <mxGeometry x="-0.0044" width="160" relative="1" as="geometry">
            <mxPoint x="1006" y="2870" as="sourcePoint" />
            <mxPoint x="850" y="2875" as="targetPoint" />
            <mxPoint as="offset" />
          </mxGeometry>
        </mxCell>
        <mxCell id="8jsh10nyiT50j1TBL-Dt-104" value="Удаление задач" style="ellipse;whiteSpace=wrap;html=1;" vertex="1" parent="1">
          <mxGeometry x="955" y="2945" width="145" height="80" as="geometry" />
        </mxCell>
        <mxCell id="8jsh10nyiT50j1TBL-Dt-105" value="&amp;lt;&amp;lt;extend&amp;gt;&amp;gt;" style="html=1;verticalAlign=bottom;labelBackgroundColor=none;endArrow=open;endFill=0;dashed=1;rounded=0;entryX=0;entryY=1;entryDx=0;entryDy=0;exitX=0.5;exitY=0;exitDx=0;exitDy=0;fontStyle=1" edge="1" parent="1" source="8jsh10nyiT50j1TBL-Dt-104" target="8jsh10nyiT50j1TBL-Dt-100">
          <mxGeometry x="-0.0044" width="160" relative="1" as="geometry">
            <mxPoint x="1111" y="2991.65" as="sourcePoint" />
            <mxPoint x="1066.3504372949221" y="2889.997950414862" as="targetPoint" />
            <mxPoint as="offset" />
          </mxGeometry>
        </mxCell>
        <mxCell id="8jsh10nyiT50j1TBL-Dt-106" value="Изменение задач" style="ellipse;whiteSpace=wrap;html=1;" vertex="1" parent="1">
          <mxGeometry x="1140" y="2945" width="145" height="80" as="geometry" />
        </mxCell>
        <mxCell id="8jsh10nyiT50j1TBL-Dt-107" value="&amp;lt;&amp;lt;extend&amp;gt;&amp;gt;" style="html=1;verticalAlign=bottom;labelBackgroundColor=none;endArrow=open;endFill=0;dashed=1;rounded=0;entryX=1;entryY=1;entryDx=0;entryDy=0;exitX=0.5;exitY=0;exitDx=0;exitDy=0;fontStyle=1" edge="1" parent="1" source="8jsh10nyiT50j1TBL-Dt-106" target="8jsh10nyiT50j1TBL-Dt-100">
          <mxGeometry x="-0.0044" width="160" relative="1" as="geometry">
            <mxPoint x="1301" y="2995.35" as="sourcePoint" />
            <mxPoint x="1158.7347356984928" y="2890.0010921001194" as="targetPoint" />
            <mxPoint as="offset" />
          </mxGeometry>
        </mxCell>
        <mxCell id="8jsh10nyiT50j1TBL-Dt-108" value="Отметка готовности задачи" style="ellipse;whiteSpace=wrap;html=1;" vertex="1" parent="1">
          <mxGeometry x="1245" y="2810" width="145" height="80" as="geometry" />
        </mxCell>
        <mxCell id="8jsh10nyiT50j1TBL-Dt-109" value="&amp;lt;&amp;lt;extend&amp;gt;&amp;gt;" style="html=1;verticalAlign=bottom;labelBackgroundColor=none;endArrow=open;endFill=0;dashed=1;rounded=0;entryX=1;entryY=0.5;entryDx=0;entryDy=0;exitX=0;exitY=0.5;exitDx=0;exitDy=0;fontStyle=1" edge="1" parent="1" source="8jsh10nyiT50j1TBL-Dt-108" target="8jsh10nyiT50j1TBL-Dt-100">
          <mxGeometry x="-0.0044" width="160" relative="1" as="geometry">
            <mxPoint x="1406" y="2872.35" as="sourcePoint" />
            <mxPoint x="1259" y="2755" as="targetPoint" />
            <mxPoint as="offset" />
          </mxGeometry>
        </mxCell>
        <mxCell id="8jsh10nyiT50j1TBL-Dt-110" value="Установление дедлайна" style="ellipse;whiteSpace=wrap;html=1;" vertex="1" parent="1">
          <mxGeometry x="1243.41" y="2704" width="145" height="80" as="geometry" />
        </mxCell>
        <mxCell id="8jsh10nyiT50j1TBL-Dt-111" value="&amp;lt;&amp;lt;extend&amp;gt;&amp;gt;" style="html=1;verticalAlign=bottom;labelBackgroundColor=none;endArrow=open;endFill=0;dashed=1;rounded=0;entryX=1;entryY=0;entryDx=0;entryDy=0;exitX=0;exitY=0.5;exitDx=0;exitDy=0;fontStyle=1" edge="1" parent="1" source="8jsh10nyiT50j1TBL-Dt-110" target="8jsh10nyiT50j1TBL-Dt-100">
          <mxGeometry x="-0.0044" width="160" relative="1" as="geometry">
            <mxPoint x="1404.41" y="2766.35" as="sourcePoint" />
            <mxPoint x="1158.9975474210423" y="2795.618029210532" as="targetPoint" />
            <mxPoint as="offset" />
          </mxGeometry>
        </mxCell>
        <mxCell id="8jsh10nyiT50j1TBL-Dt-114" value="Добавление тега к задаче" style="ellipse;whiteSpace=wrap;html=1;" vertex="1" parent="1">
          <mxGeometry x="1064" y="3057" width="145" height="80" as="geometry" />
        </mxCell>
        <mxCell id="8jsh10nyiT50j1TBL-Dt-115" value="&amp;lt;&amp;lt;extend&amp;gt;&amp;gt;" style="html=1;verticalAlign=bottom;labelBackgroundColor=none;endArrow=open;endFill=0;dashed=1;rounded=0;entryX=0.5;entryY=1;entryDx=0;entryDy=0;exitX=0.5;exitY=0;exitDx=0;exitDy=0;fontStyle=1" edge="1" parent="1" source="8jsh10nyiT50j1TBL-Dt-114" target="8jsh10nyiT50j1TBL-Dt-100">
          <mxGeometry x="0.4075" y="3" width="160" relative="1" as="geometry">
            <mxPoint x="1225" y="3107.35" as="sourcePoint" />
            <mxPoint x="1077" y="2990" as="targetPoint" />
            <mxPoint as="offset" />
          </mxGeometry>
        </mxCell>
        <mxCell id="8jsh10nyiT50j1TBL-Dt-116" value="Поиск задачи по тегу" style="ellipse;whiteSpace=wrap;html=1;" vertex="1" parent="1">
          <mxGeometry x="845" y="3057" width="145" height="80" as="geometry" />
        </mxCell>
        <mxCell id="8jsh10nyiT50j1TBL-Dt-117" value="&amp;lt;&amp;lt;extend&amp;gt;&amp;gt;" style="html=1;verticalAlign=bottom;labelBackgroundColor=none;endArrow=open;endFill=0;dashed=1;rounded=0;entryX=0;entryY=0.5;entryDx=0;entryDy=0;exitX=1;exitY=0.5;exitDx=0;exitDy=0;fontStyle=1;" edge="1" parent="1" source="8jsh10nyiT50j1TBL-Dt-116" target="8jsh10nyiT50j1TBL-Dt-114">
          <mxGeometry width="160" relative="1" as="geometry">
            <mxPoint x="1150" y="3068.25" as="sourcePoint" />
            <mxPoint x="850" y="3147" as="targetPoint" />
          </mxGeometry>
        </mxCell>
        <mxCell id="8jsh10nyiT50j1TBL-Dt-118" value="Фильтрация по категориям и тегам" style="ellipse;whiteSpace=wrap;html=1;" vertex="1" parent="1">
          <mxGeometry x="780" y="2970" width="145" height="80" as="geometry" />
        </mxCell>
        <mxCell id="8jsh10nyiT50j1TBL-Dt-119" value="&amp;lt;&amp;lt;extend&amp;gt;&amp;gt;" style="html=1;verticalAlign=bottom;labelBackgroundColor=none;endArrow=open;endFill=0;dashed=1;rounded=0;exitX=1;exitY=0;exitDx=0;exitDy=0;fontStyle=1;entryX=0.034;entryY=0.71;entryDx=0;entryDy=0;entryPerimeter=0;" edge="1" parent="1" source="8jsh10nyiT50j1TBL-Dt-118" target="8jsh10nyiT50j1TBL-Dt-100">
          <mxGeometry x="-0.6086" y="-1" width="160" relative="1" as="geometry">
            <mxPoint x="1104" y="2901.25" as="sourcePoint" />
            <mxPoint x="710" y="2950" as="targetPoint" />
            <mxPoint as="offset" />
          </mxGeometry>
        </mxCell>
      </root>
    </mxGraphModel>
  </diagram>
</mxfile>
